<svg xmlns="http://www.w3.org/2000/svg" viewBox="0 0 64 64">
  <ellipse cx="32" cy="54" rx="18" ry="4" fill="#000" opacity="0.25"/>
  <path d="M44 8 L22 52" stroke="#161018" stroke-width="7" stroke-linecap="round"/>
  <path d="M44 8 L22 52" stroke="#5f7080" stroke-width="3.5" stroke-linecap="round"/><path d="M42 2 L52 14 L45 19 L36 9 Z" fill="#e2ebf2" stroke="#161018" stroke-width="2.5" stroke-linejoin="round"/>
  <path d="M25 42 h5 v12 h-5 Z" fill="#233a2e" stroke="#161018" stroke-width="2.5" stroke-linejoin="round"/><path d="M34 42 h5 v12 h-5 Z" fill="#233a2e" stroke="#161018" stroke-width="2.5" stroke-linejoin="round"/>
  <path d="M23 26 h18 v18 a4 4 0 0 1 -4 4 H27 a4 4 0 0 1 -4 -4 Z" fill="#4a6d5a" stroke="#161018" stroke-width="3" stroke-linejoin="round"/>
  <path d="M32 26 h9 v18 a4 4 0 0 1 -4 4 h-5 Z" fill="#233a2e" opacity="0.45"/>
  <circle cx="32" cy="17" r="8" fill="#f0c9a0" stroke="#161018" stroke-width="3"/>
  <path d="M32 9 a8 8 0 0 1 0 16 Z" fill="#c99a70" opacity="0.45"/>
  <path d="M22 16 a10 10 0 0 1 20 0 Z" fill="#233a2e" stroke="#161018" stroke-width="2.5" stroke-linejoin="round"/>
  
  <path d="M12 22 h20 v20 q0 9 -10 14 q-10 -5 -10 -14 Z" fill="#e2ebf2" stroke="#161018" stroke-width="3" stroke-linejoin="round"/>
      <path d="M22 22 h10 v20 q0 9 -10 14 Z" fill="#5f7080" opacity="0.45"/>
</svg>