<svg xmlns="http://www.w3.org/2000/svg" viewBox="0 0 64 64">
  <ellipse cx="32" cy="54" rx="18" ry="4" fill="#000" opacity="0.25"/>
  <path d="M42 18 h14 v20 h-14 Z" fill="#5f7080" stroke="#161018" stroke-width="2.5" stroke-linejoin="round"/><circle cx="49" cy="28" r="4" fill="#9df4ee" stroke="#161018" stroke-width="2"/>
  <path d="M25 42 h5 v12 h-5 Z" fill="#1b3a30" stroke="#161018" stroke-width="2.5" stroke-linejoin="round"/><path d="M34 42 h5 v12 h-5 Z" fill="#1b3a30" stroke="#161018" stroke-width="2.5" stroke-linejoin="round"/>
  <path d="M23 26 h18 v18 a4 4 0 0 1 -4 4 H27 a4 4 0 0 1 -4 -4 Z" fill="#3a6b5a" stroke="#161018" stroke-width="3" stroke-linejoin="round"/>
  <path d="M32 26 h9 v18 a4 4 0 0 1 -4 4 h-5 Z" fill="#1b3a30" opacity="0.45"/>
  <circle cx="32" cy="17" r="8" fill="#f0c9a0" stroke="#161018" stroke-width="3"/>
  <path d="M32 9 a8 8 0 0 1 0 16 Z" fill="#c99a70" opacity="0.45"/>
  <path d="M20 16 a12 11 0 0 1 24 0 v3 h-24 Z" fill="#5f7080" stroke="#161018" stroke-width="3" stroke-linejoin="round"/><rect x="23" y="13" width="18" height="4" rx="1" fill="#9df4ee"/>
  
  <path d="M12 40 H46" stroke="#161018" stroke-width="8" stroke-linecap="round"/>
      <path d="M12 40 H46" stroke="#e2ebf2" stroke-width="4" stroke-linecap="round"/>
      <rect x="26" y="40" width="7" height="10" rx="1" fill="#171319" stroke="#161018" stroke-width="3"/>
      <path d="M18 26 h14 v12 h-14 Z" fill="#3fd6c8" stroke="#161018" stroke-width="2.5" stroke-linejoin="round"/>
</svg>