<svg xmlns="http://www.w3.org/2000/svg" viewBox="0 0 64 64">
  <ellipse cx="32" cy="54" rx="18" ry="4" fill="#000" opacity="0.25"/>
    <path d="M30 34 L48 50" stroke="#161018" stroke-width="11" stroke-linecap="round"/>
    <path d="M30 34 L48 50" stroke="#efe2cd" stroke-width="6.5" stroke-linecap="round"/>
    <circle cx="50" cy="46" r="6" fill="#efe2cd" stroke="#161018" stroke-width="2.5"/><circle cx="46" cy="53" r="6" fill="#efe2cd" stroke="#161018" stroke-width="2.5"/>
    <path d="M12 34 a16 16 0 1 1 24 -6 a14 14 0 0 1 -8 14 a12 12 0 0 1 -16 -8 Z" fill="#e0604c" stroke="#161018" stroke-width="3" stroke-linejoin="round"/>
    <path d="M28 16 a14 14 0 0 1 0 26 a12 12 0 0 1 -6 2 Z" fill="#8f2f22" opacity="0.42"/>
    <path d="M16 22 a8 7 0 0 1 8 -4 a9 8 0 0 0 -8 9 Z" fill="#ff9d8a" opacity="0.9"/>
</svg>